<mxfile host="Electron" modified="2024-04-08T13:41:28.267Z" agent="Mozilla/5.0 (Macintosh; Intel Mac OS X 10_15_7) AppleWebKit/537.36 (KHTML, like Gecko) draw.io/22.0.3 Chrome/114.0.5735.289 Electron/25.8.4 Safari/537.36" etag="kvsdLWor3gF0Q51y-lWA" version="22.0.3" type="device">
  <diagram id="r1lJz0A7Nyj0sMlimptT" name="Страница 1">
    <mxGraphModel dx="1134" dy="613" grid="1" gridSize="10" guides="1" tooltips="1" connect="1" arrows="1" fold="1" page="1" pageScale="1" pageWidth="1169" pageHeight="827" math="0" shadow="0">
      <root>
        <mxCell id="0" />
        <mxCell id="1" parent="0" />
        <mxCell id="mdWx8ZD84mnnf48JrDrc-1" value="Service A" style="rounded=1;whiteSpace=wrap;html=1;strokeWidth=2;fontSize=15;fontStyle=1;fillColor=#f8cecc;strokeColor=#b85450;fillStyle=cross-hatch;" parent="1" vertex="1">
          <mxGeometry x="310" y="290" width="120" height="60" as="geometry" />
        </mxCell>
        <mxCell id="mdWx8ZD84mnnf48JrDrc-2" value="Service B" style="rounded=1;whiteSpace=wrap;html=1;strokeWidth=2;fontSize=15;fontStyle=1;fillColor=#ffe6cc;strokeColor=#d79b00;fillStyle=cross-hatch;" parent="1" vertex="1">
          <mxGeometry x="550" y="290" width="120" height="60" as="geometry" />
        </mxCell>
        <mxCell id="mdWx8ZD84mnnf48JrDrc-4" value="TEAM 1" style="shape=umlActor;verticalLabelPosition=bottom;verticalAlign=top;html=1;outlineConnect=0;fontSize=15;strokeWidth=2;" parent="1" vertex="1">
          <mxGeometry x="350" y="390" width="30" height="60" as="geometry" />
        </mxCell>
        <mxCell id="mdWx8ZD84mnnf48JrDrc-5" value="TEAM 2" style="shape=umlActor;verticalLabelPosition=bottom;verticalAlign=top;html=1;outlineConnect=0;fontSize=15;strokeWidth=2;" parent="1" vertex="1">
          <mxGeometry x="595" y="390" width="30" height="60" as="geometry" />
        </mxCell>
        <mxCell id="bo4t_Jb4_6fKJdvoGLDs-5" value="" style="group" vertex="1" connectable="0" parent="1">
          <mxGeometry x="460" y="380" width="60" height="86" as="geometry" />
        </mxCell>
        <mxCell id="bo4t_Jb4_6fKJdvoGLDs-4" value="" style="group" vertex="1" connectable="0" parent="bo4t_Jb4_6fKJdvoGLDs-5">
          <mxGeometry width="60" height="86" as="geometry" />
        </mxCell>
        <mxCell id="bo4t_Jb4_6fKJdvoGLDs-1" value="" style="shape=image;verticalLabelPosition=bottom;labelBackgroundColor=default;verticalAlign=top;aspect=fixed;imageAspect=0;image=https://seeklogo.com/images/O/openapi-logo-3E54DE56CD-seeklogo.com.png;" vertex="1" parent="bo4t_Jb4_6fKJdvoGLDs-4">
          <mxGeometry x="5" y="28" width="52" height="52" as="geometry" />
        </mxCell>
        <mxCell id="bo4t_Jb4_6fKJdvoGLDs-3" value="" style="sketch=0;pointerEvents=1;shadow=0;dashed=0;html=1;strokeColor=none;fillColor=#505050;labelPosition=center;verticalLabelPosition=bottom;verticalAlign=top;outlineConnect=0;align=center;shape=mxgraph.office.concepts.document_blank;" vertex="1" parent="bo4t_Jb4_6fKJdvoGLDs-5">
          <mxGeometry width="60" height="86" as="geometry" />
        </mxCell>
        <mxCell id="bo4t_Jb4_6fKJdvoGLDs-6" value="" style="endArrow=classic;startArrow=classic;html=1;rounded=0;fontStyle=0;strokeWidth=2;" edge="1" parent="1">
          <mxGeometry width="50" height="50" relative="1" as="geometry">
            <mxPoint x="390" y="420" as="sourcePoint" />
            <mxPoint x="450" y="420" as="targetPoint" />
          </mxGeometry>
        </mxCell>
        <mxCell id="bo4t_Jb4_6fKJdvoGLDs-7" value="" style="endArrow=classic;startArrow=classic;html=1;rounded=0;fontStyle=0;strokeWidth=2;" edge="1" parent="1">
          <mxGeometry width="50" height="50" relative="1" as="geometry">
            <mxPoint x="535" y="420" as="sourcePoint" />
            <mxPoint x="595" y="420" as="targetPoint" />
          </mxGeometry>
        </mxCell>
        <mxCell id="bo4t_Jb4_6fKJdvoGLDs-10" value="" style="curved=1;endArrow=classic;html=1;rounded=0;strokeWidth=2;" edge="1" parent="1">
          <mxGeometry width="50" height="50" relative="1" as="geometry">
            <mxPoint x="470" y="370" as="sourcePoint" />
            <mxPoint x="380" y="280" as="targetPoint" />
            <Array as="points">
              <mxPoint x="470" y="350" />
              <mxPoint x="470" y="340" />
              <mxPoint x="470" y="280" />
              <mxPoint x="420" y="250" />
            </Array>
          </mxGeometry>
        </mxCell>
        <mxCell id="bo4t_Jb4_6fKJdvoGLDs-11" value="" style="curved=1;endArrow=classic;html=1;rounded=0;strokeWidth=2;" edge="1" parent="1">
          <mxGeometry width="50" height="50" relative="1" as="geometry">
            <mxPoint x="505" y="370" as="sourcePoint" />
            <mxPoint x="595" y="280" as="targetPoint" />
            <Array as="points">
              <mxPoint x="505" y="350" />
              <mxPoint x="505" y="340" />
              <mxPoint x="505" y="280" />
              <mxPoint x="555" y="250" />
            </Array>
          </mxGeometry>
        </mxCell>
        <mxCell id="bo4t_Jb4_6fKJdvoGLDs-12" value="approve" style="text;html=1;strokeColor=none;fillColor=none;align=center;verticalAlign=middle;whiteSpace=wrap;rounded=0;" vertex="1" parent="1">
          <mxGeometry x="390" y="390" width="60" height="30" as="geometry" />
        </mxCell>
        <mxCell id="bo4t_Jb4_6fKJdvoGLDs-13" value="approve" style="text;html=1;strokeColor=none;fillColor=none;align=center;verticalAlign=middle;whiteSpace=wrap;rounded=0;" vertex="1" parent="1">
          <mxGeometry x="535" y="390" width="60" height="30" as="geometry" />
        </mxCell>
        <mxCell id="bo4t_Jb4_6fKJdvoGLDs-14" value="server impl" style="text;html=1;strokeColor=none;fillColor=none;align=center;verticalAlign=middle;whiteSpace=wrap;rounded=0;" vertex="1" parent="1">
          <mxGeometry x="390" y="230" width="70" height="30" as="geometry" />
        </mxCell>
        <mxCell id="bo4t_Jb4_6fKJdvoGLDs-15" value="client" style="text;html=1;strokeColor=none;fillColor=none;align=center;verticalAlign=middle;whiteSpace=wrap;rounded=0;" vertex="1" parent="1">
          <mxGeometry x="515" y="230" width="70" height="30" as="geometry" />
        </mxCell>
      </root>
    </mxGraphModel>
  </diagram>
</mxfile>
